<mxfile>
    <diagram id="Id4jI0-X_sQcAS5ZlTCE" name="Page-1">
        <mxGraphModel dx="688" dy="671" grid="0" gridSize="10" guides="1" tooltips="1" connect="1" arrows="1" fold="1" page="1" pageScale="1" pageWidth="827" pageHeight="1169" background="#ffffff" math="0" shadow="0">
            <root>
                <mxCell id="0"/>
                <mxCell id="1" parent="0"/>
                <mxCell id="39" style="edgeStyle=orthogonalEdgeStyle;rounded=0;orthogonalLoop=1;jettySize=auto;html=1;strokeColor=#666666;" parent="1" target="37" edge="1">
                    <mxGeometry relative="1" as="geometry">
                        <mxPoint x="376" y="572" as="sourcePoint"/>
                        <Array as="points">
                            <mxPoint x="376" y="602"/>
                            <mxPoint x="376" y="602"/>
                        </Array>
                    </mxGeometry>
                </mxCell>
                <mxCell id="31" value="" style="rounded=0;whiteSpace=wrap;html=1;dashed=1;direction=west;fillColor=#f5f5f5;strokeColor=#666666;fontColor=#333333;" parent="1" vertex="1">
                    <mxGeometry x="195" y="32" width="269" height="540" as="geometry"/>
                </mxCell>
                <mxCell id="zFLDkOMpKTgyT10q_Gqy-5" value="on error: specify the error type" style="rounded=0;whiteSpace=wrap;html=1;direction=west;fontColor=#333333;strokeColor=#666666;fillColor=#FFFFFF;" parent="1" vertex="1">
                    <mxGeometry x="333.5" y="277" width="149" height="40" as="geometry"/>
                </mxCell>
                <mxCell id="zFLDkOMpKTgyT10q_Gqy-11" value="Internal func that causes the error" style="rounded=0;whiteSpace=wrap;html=1;fillColor=#f5f5f5;strokeColor=#666666;fontColor=#333333;direction=west;" parent="1" vertex="1">
                    <mxGeometry x="210" y="63" width="240" height="60" as="geometry"/>
                </mxCell>
                <mxCell id="zFLDkOMpKTgyT10q_Gqy-21" value="adds some information to the context (i.e. request id)" style="rounded=0;whiteSpace=wrap;html=1;direction=west;fontColor=#333333;strokeColor=#666666;fillColor=#FFFFFF;" parent="1" vertex="1">
                    <mxGeometry x="170" y="371" width="145" height="57" as="geometry"/>
                </mxCell>
                <mxCell id="8" value="Handler / entrypoint" style="rounded=0;whiteSpace=wrap;html=1;fillColor=#f5f5f5;fontColor=#333333;direction=west;strokeColor=#666666;" parent="1" vertex="1">
                    <mxGeometry x="210" y="428" width="240" height="60" as="geometry"/>
                </mxCell>
                <mxCell id="10" value="" style="endArrow=classic;html=1;strokeColor=#666666;" parent="1" edge="1">
                    <mxGeometry width="50" height="50" relative="1" as="geometry">
                        <mxPoint x="505" y="83" as="sourcePoint"/>
                        <mxPoint x="506" y="508" as="targetPoint"/>
                    </mxGeometry>
                </mxCell>
                <mxCell id="11" value="error" style="edgeLabel;html=1;align=center;verticalAlign=middle;resizable=0;points=[];direction=west;fontColor=#333333;labelBackgroundColor=#ffffff;" parent="10" vertex="1" connectable="0">
                    <mxGeometry x="-0.0736" y="1" relative="1" as="geometry">
                        <mxPoint x="-3" y="16" as="offset"/>
                    </mxGeometry>
                </mxCell>
                <mxCell id="12" value="" style="endArrow=classic;html=1;strokeColor=#666666;" parent="1" edge="1">
                    <mxGeometry width="50" height="50" relative="1" as="geometry">
                        <mxPoint x="151" y="501" as="sourcePoint"/>
                        <mxPoint x="150" y="89" as="targetPoint"/>
                    </mxGeometry>
                </mxCell>
                <mxCell id="13" value="context" style="edgeLabel;html=1;align=center;verticalAlign=middle;resizable=0;points=[];direction=west;fontColor=#333333;labelBackgroundColor=#ffffff;" parent="12" vertex="1" connectable="0">
                    <mxGeometry x="-0.0736" y="1" relative="1" as="geometry">
                        <mxPoint x="-2" y="-21" as="offset"/>
                    </mxGeometry>
                </mxCell>
                <mxCell id="14" value="Handle the error" style="text;html=1;strokeColor=none;fillColor=none;align=left;verticalAlign=middle;whiteSpace=wrap;rounded=0;direction=west;fontColor=#333333;" parent="1" vertex="1">
                    <mxGeometry x="519" y="448" width="231" height="30" as="geometry"/>
                </mxCell>
                <mxCell id="15" value="Initiate context, call the rest of the stack" style="text;html=1;strokeColor=none;fillColor=none;align=right;verticalAlign=middle;whiteSpace=wrap;rounded=0;direction=west;fontColor=#333333;" parent="1" vertex="1">
                    <mxGeometry x="28" y="442.5" width="112" height="41" as="geometry"/>
                </mxCell>
                <mxCell id="26" value="" style="endArrow=none;dashed=1;html=1;dashPattern=1 3;strokeWidth=2;strokeColor=#666666;" parent="1" edge="1">
                    <mxGeometry width="50" height="50" relative="1" as="geometry">
                        <mxPoint x="93" y="356" as="sourcePoint"/>
                        <mxPoint x="799" y="355" as="targetPoint"/>
                    </mxGeometry>
                </mxCell>
                <mxCell id="27" value="" style="endArrow=none;dashed=1;html=1;dashPattern=1 3;strokeWidth=2;strokeColor=#666666;" parent="1" edge="1">
                    <mxGeometry width="50" height="50" relative="1" as="geometry">
                        <mxPoint x="80" y="166" as="sourcePoint"/>
                        <mxPoint x="794" y="165" as="targetPoint"/>
                    </mxGeometry>
                </mxCell>
                <mxCell id="28" value="Internal/adapters layer" style="text;html=1;strokeColor=none;fillColor=none;align=center;verticalAlign=middle;whiteSpace=wrap;rounded=0;direction=west;fontColor=#333333;" parent="1" vertex="1">
                    <mxGeometry x="639" y="120" width="145" height="56" as="geometry"/>
                </mxCell>
                <mxCell id="29" value="app logic layer" style="text;html=1;strokeColor=none;fillColor=none;align=center;verticalAlign=middle;whiteSpace=wrap;rounded=0;direction=west;fontColor=#333333;" parent="1" vertex="1">
                    <mxGeometry x="636" y="302" width="145" height="56" as="geometry"/>
                </mxCell>
                <mxCell id="30" value="client interface layer" style="text;html=1;strokeColor=none;fillColor=none;align=center;verticalAlign=middle;whiteSpace=wrap;rounded=0;direction=west;fontColor=#333333;" parent="1" vertex="1">
                    <mxGeometry x="641" y="344" width="145" height="56" as="geometry"/>
                </mxCell>
                <mxCell id="32" value="Call stack" style="text;html=1;strokeColor=none;fillColor=none;align=center;verticalAlign=middle;whiteSpace=wrap;rounded=0;dashed=1;direction=west;fontColor=#333333;" parent="1" vertex="1">
                    <mxGeometry x="164" y="572" width="113" height="20" as="geometry"/>
                </mxCell>
                <mxCell id="34" value="on error: checks the error type, handles it accordingly" style="rounded=0;whiteSpace=wrap;html=1;direction=west;fontColor=#333333;strokeColor=#666666;fillColor=#FFFFFF;" parent="1" vertex="1">
                    <mxGeometry x="339" y="487" width="145" height="57" as="geometry"/>
                </mxCell>
                <mxCell id="35" value="App logic" style="rounded=0;whiteSpace=wrap;html=1;direction=west;fillColor=#f5f5f5;strokeColor=#666666;fontColor=#333333;" parent="1" vertex="1">
                    <mxGeometry x="208" y="217" width="240" height="60" as="geometry"/>
                </mxCell>
                <mxCell id="38" style="edgeStyle=orthogonalEdgeStyle;rounded=0;orthogonalLoop=1;jettySize=auto;html=1;strokeColor=#666666;" parent="1" source="36" edge="1">
                    <mxGeometry relative="1" as="geometry">
                        <mxPoint x="274" y="573" as="targetPoint"/>
                        <Array as="points">
                            <mxPoint x="274" y="573"/>
                        </Array>
                    </mxGeometry>
                </mxCell>
                <mxCell id="36" value="Input" style="shape=mxgraph.bpmn.shape;html=1;verticalLabelPosition=bottom;labelBackgroundColor=none;verticalAlign=top;align=center;perimeter=ellipsePerimeter;outlineConnect=0;outline=standard;symbol=general;dashed=1;direction=west;fontColor=#333333;fillColor=#F5F5F5;strokeColor=#666666;" parent="1" vertex="1">
                    <mxGeometry x="249" y="667" width="50" height="50" as="geometry"/>
                </mxCell>
                <mxCell id="37" value="Output" style="shape=mxgraph.bpmn.shape;html=1;verticalLabelPosition=bottom;labelBackgroundColor=none;verticalAlign=top;align=center;perimeter=ellipsePerimeter;outlineConnect=0;outline=end;symbol=general;dashed=1;direction=west;fontColor=#333333;fillColor=#F5F5F5;strokeColor=#666666;" parent="1" vertex="1">
                    <mxGeometry x="352" y="667" width="50" height="50" as="geometry"/>
                </mxCell>
            </root>
        </mxGraphModel>
    </diagram>
</mxfile>